<svg width="40" height="50" viewBox="0 0 40 50" fill="none" xmlns="http://www.w3.org/2000/svg">
<path d="M2.14432 0.137242C1.21689 0.449998 0.497923 1.12398 0.143607 1.98317C-0.00225507 2.3546 -0.0125956 4.63012 0.00808645 25.2016L0.0391092 48.0099L0.320493 48.4589C0.685149 49.0451 1.40412 49.6507 1.97723 49.8558C2.40448 50.0022 3.76949 50.0119 20.1496 49.9925C37.0093 49.9635 37.8845 49.9533 38.2077 49.7874C38.8228 49.4747 39.4062 48.8987 39.7083 48.3027L40 47.7165V28.4149C40 11.1159 39.9793 9.06432 39.8335 8.63473C39.6876 8.20513 39.281 7.79493 35.5403 4.30767C32.3624 1.35766 31.2787 0.410202 30.8825 0.234181L30.3616 -4.69427e-07L16.4508 0.00969046C5.02021 0.0102007 2.46707 0.0295885 2.14432 0.137242ZM28.8508 5.7638C28.8508 9.85667 28.8715 10.0128 29.4658 10.296C29.7368 10.4327 30.3513 10.4521 33.8003 10.4521H37.8121V28.992C37.8121 45.5099 37.7914 47.5609 37.6455 47.7466L37.4893 47.9614H19.9934C4.22776 47.9614 2.48775 47.942 2.34189 47.8053C2.19602 47.6686 2.17534 45.4706 2.17534 25.0654C2.17534 1.48521 2.165 2.26684 2.59225 2.12041C2.67552 2.09133 8.62541 2.06174 15.8048 2.06174L28.8508 2.05205V5.7638V5.7638ZM33.9565 5.7439C35.4467 7.11125 36.6658 8.26432 36.6658 8.31279C36.6658 8.37146 35.5615 8.39085 33.8836 8.38116L31.091 8.35207L31.0599 5.78319C31.0496 4.09338 31.0703 3.2143 31.1432 3.24338C31.1949 3.25307 32.4663 4.38624 33.9565 5.7439Z" fill="white"/>
<path d="M17.076 18.9797C14.1897 19.898 12.5537 22.9746 13.5334 25.6317C13.8251 26.4328 14.2001 27.0088 14.8674 27.6634C15.9406 28.7185 17.0765 29.2068 18.4829 29.2068C19.8272 29.2068 21.3278 28.5914 22.161 27.7027C22.7445 27.068 22.536 26.2374 21.7234 25.9838C21.2859 25.847 20.9 25.9741 20.4107 26.4231C19.0555 27.6537 16.6901 27.2828 15.8356 25.7001C15.3664 24.8501 15.3147 23.6292 15.6794 22.6134C15.9401 21.92 16.763 21.1679 17.4923 20.9628C18.6179 20.6501 19.5137 20.8261 20.3992 21.5389C20.7846 21.8516 21.0453 21.9787 21.2537 21.9787C21.9308 21.9787 22.3793 21.5588 22.3896 20.9236C22.3896 20.4154 22.025 20.0052 21.0872 19.4878C19.7537 18.7455 18.3577 18.5695 17.076 18.9797Z" fill="white"/>
<path d="M24.3493 19.2434C24.0265 19.4776 23.8072 19.9465 23.8801 20.2302C23.9117 20.3378 24.745 22.3011 25.7453 24.5868C26.8496 27.1363 27.6415 28.8261 27.7983 28.9726C28.121 29.2756 28.809 29.295 29.1943 29.0118C29.3924 28.8654 29.9029 27.7613 31.299 24.4991C33.3204 19.7618 33.31 19.7812 32.6956 19.3026C32.3206 19.0001 31.8514 18.9705 31.4035 19.2246C31.1324 19.3807 30.9343 19.7715 29.8507 22.3307C29.1736 23.9327 28.5793 25.2807 28.5483 25.3195C28.5069 25.368 27.8919 24.0496 27.1833 22.4082C26.0474 19.771 25.8602 19.3899 25.5788 19.2337C25.1619 18.999 24.6726 18.999 24.3493 19.2434Z" fill="white"/>
<path d="M7.63551 33.4073C6.94756 33.6711 6.74999 34.5792 7.27085 35.0777L7.57292 35.3609H19.9832H32.3935L32.7162 35.0874C32.9873 34.8629 33.0499 34.7359 33.0499 34.4231C33.0499 33.9348 32.7892 33.5537 32.3728 33.417C31.9766 33.2899 7.96914 33.2802 7.63551 33.4073Z" fill="white"/>
<path d="M7.32282 39.991C6.8123 40.4696 6.85421 41.1042 7.42677 41.5344C7.63522 41.6905 8.44781 41.7104 20.0036 41.7104C32.2365 41.7104 32.372 41.7104 32.6327 41.515C33.0284 41.2221 33.1748 40.7333 32.9767 40.3134C32.6746 39.6104 33.5498 39.6588 19.9307 39.6588H7.67713L7.32282 39.991Z" fill="white"/>
</svg>
