<svg width="50" height="50" viewBox="0 0 50 50" fill="none" xmlns="http://www.w3.org/2000/svg">
<path fill-rule="evenodd" clip-rule="evenodd" d="M25 0C11.2295 0 0.0682983 11.4426 0.0682983 25.5602C0.0682983 36.8487 7.21311 46.4286 17.1175 49.8179C18.3606 50.056 18.8251 49.2577 18.8251 48.5854C18.8251 47.9692 18.7978 45.9664 18.7978 43.8235C11.8579 45.3641 10.3962 40.8123 10.3962 40.8123C9.26229 37.8571 7.62294 37.0728 7.62294 37.0728C5.35518 35.4902 7.78688 35.5182 7.78688 35.5182C10.2869 35.7003 11.612 38.1513 11.612 38.1513C13.8388 42.0588 17.4453 40.9244 18.8661 40.2801C19.0847 38.6275 19.7404 37.507 20.4508 36.8627C14.918 36.2185 9.08469 34.0196 9.08469 24.2297C9.08469 21.4426 10.0546 19.1597 11.653 17.3669C11.3934 16.7227 10.5464 14.1176 11.8989 10.6022C11.8989 10.6022 13.9891 9.91597 18.7568 13.2213C20.7514 12.6611 22.8825 12.3669 25 12.3669C27.1175 12.381 29.2486 12.6611 31.2432 13.2213C35.9973 9.91597 38.0874 10.6022 38.0874 10.6022C39.4399 14.1176 38.5929 16.7227 38.3333 17.3669C39.9317 19.1597 40.9016 21.4426 40.9016 24.2297C40.9016 34.0476 35.0683 36.2045 29.5219 36.8347C30.4098 37.6331 31.2158 39.1877 31.2158 41.5686C31.2158 44.986 31.1885 47.7451 31.1885 48.5854C31.1885 49.2717 31.6393 50.056 32.8962 49.8179C42.8005 46.4286 49.9317 36.8627 49.9317 25.5602C49.9317 11.4426 38.7705 0 25 0Z" fill="#D0D0D0"/>
</svg>
